<svg width="24" height="24" viewBox="0 0 24 24" fill="none" xmlns="http://www.w3.org/2000/svg">
<g id="&#60;Icon&#62; After">
<path id="Vector" fill-rule="evenodd" clip-rule="evenodd" d="M11.793 5.79304C11.7001 5.88583 11.6263 5.99603 11.576 6.11735C11.5257 6.23866 11.4998 6.36871 11.4998 6.50004C11.4998 6.63138 11.5257 6.76142 11.576 6.88274C11.6263 7.00405 11.7001 7.11425 11.793 7.20704L15.586 11H6C5.73478 11 5.48043 11.1054 5.29289 11.2929C5.10536 11.4805 5 11.7348 5 12C5 12.2653 5.10536 12.5196 5.29289 12.7071C5.48043 12.8947 5.73478 13 6 13H15.586L11.793 16.793C11.7001 16.8858 11.6263 16.996 11.576 17.1173C11.5257 17.2387 11.4998 17.3687 11.4998 17.5C11.4998 17.6314 11.5257 17.7614 11.576 17.8827C11.6263 18.004 11.7001 18.1143 11.793 18.207C12.183 18.597 12.817 18.597 13.208 18.207L18.707 12.707C18.8881 12.5266 18.993 12.2836 19 12.028V11.971C18.9928 11.7158 18.888 11.4731 18.707 11.293L13.208 5.79304C13.1151 5.70007 13.0048 5.62631 12.8834 5.57598C12.762 5.52566 12.6319 5.49976 12.5005 5.49976C12.3691 5.49976 12.239 5.52566 12.1176 5.57598C11.9962 5.62631 11.8859 5.70007 11.793 5.79304Z" fill="white"/>
</g>
</svg>
