<svg width="13" height="28" viewBox="0 0 13 28" fill="none" xmlns="http://www.w3.org/2000/svg">
<g id="google_logo.svg" clip-path="url(#clip0_5199_1146)">
<g id="Group">
<path id="Vector" d="M6.88898 18.9002C5.28069 18.9002 4.18705 18.2002 3.41507 16.7365L13.0005 12.8547L12.6788 12.0275C12.0998 10.4365 10.2342 7.50928 6.56732 7.50928C2.90042 7.50928 -0.1875 10.3729 -0.1875 14.5729C-0.1875 18.5184 2.83608 21.6365 6.88898 21.6365C10.1699 21.6365 12.0355 19.6638 12.8718 18.5184L10.4272 16.9275C9.59091 18.1365 8.49727 18.9002 6.88898 18.9002ZM6.69599 10.182C7.98263 10.182 9.07626 10.8184 9.39792 11.7093L2.96475 14.382C2.90042 11.4547 5.0877 10.182 6.69599 10.182Z" fill="#EA4335"/>
</g>
</g>
<defs>
<clipPath id="clip0_5199_1146">
<rect width="90" height="28" fill="white" transform="translate(-77)"/>
</clipPath>
</defs>
</svg>
