<svg width="90" height="28" viewBox="0 0 90 28" fill="none" xmlns="http://www.w3.org/2000/svg">
<g id="google_logo.svg" clip-path="url(#clip0_5199_137)">
<g id="Group">
<path id="Vector" d="M11.258 9.99091V12.9818H18.5275C18.3345 14.6364 17.7555 15.9091 16.8549 16.7364C15.8256 17.7545 14.153 18.9 11.258 18.9C6.81916 18.9 3.34525 15.3364 3.34525 10.9455C3.34525 6.55455 6.75483 2.99091 11.258 2.99091C13.6383 2.99091 15.4396 3.94546 16.7262 5.15455L18.8492 3.05455C17.0479 1.33636 14.6033 0 11.258 0C5.14653 0 0 4.9 0 10.9455C0 16.9909 5.14653 21.8909 11.258 21.8909C14.539 21.8909 17.0479 20.8091 18.9778 18.8364C20.9721 16.8636 21.6154 14.0636 21.6154 11.8364C21.6154 11.1364 21.5511 10.5 21.4868 9.99091H11.258Z" fill="#4285F4"/>
<path id="Vector_2" d="M30.6221 7.50928C26.6979 7.50928 23.417 10.5002 23.417 14.5729C23.417 18.6456 26.6336 21.6365 30.6221 21.6365C34.6107 21.6365 37.8273 18.7093 37.8273 14.6365C37.8273 10.5002 34.6107 7.50928 30.6221 7.50928ZM30.6221 18.9002C28.4349 18.9002 26.5692 17.1184 26.5692 14.6365C26.5692 12.0911 28.4349 10.3729 30.6221 10.3729C32.8094 10.3729 34.675 12.0911 34.675 14.6365C34.675 17.1184 32.8094 18.9002 30.6221 18.9002Z" fill="#EA4335"/>
<path id="Vector_3" d="M65.811 9.10019H65.6823C64.9747 8.27291 63.6237 7.50928 61.8868 7.50928C58.2842 7.50928 55.1963 10.5638 55.1963 14.5729C55.1963 18.5184 58.2842 21.6365 61.8868 21.6365C63.6237 21.6365 64.9747 20.8729 65.6823 20.0456H65.811V21.0638C65.811 23.7365 64.3314 25.2002 62.0154 25.2002C60.0855 25.2002 58.9275 23.8638 58.4129 22.6547L55.7109 23.8002C56.4829 25.6456 58.6059 28.0002 62.0798 28.0002C65.7467 28.0002 68.8989 25.8366 68.8989 20.6184V7.8911H65.9397V9.10019H65.811ZM62.2084 18.9002C60.0212 18.9002 58.4129 17.0547 58.4129 14.6365C58.4129 12.1547 60.0855 10.3729 62.2084 10.3729C64.3314 10.3729 66.004 12.2184 66.004 14.7002C66.0683 17.1184 64.3957 18.9002 62.2084 18.9002Z" fill="#4285F4"/>
<path id="Vector_4" d="M46.6407 7.50928C42.7165 7.50928 39.4355 10.5002 39.4355 14.5729C39.4355 18.6456 42.6521 21.6365 46.6407 21.6365C50.6293 21.6365 53.8458 18.7093 53.8458 14.6365C53.8458 10.5002 50.6293 7.50928 46.6407 7.50928ZM46.6407 18.9002C44.4534 18.9002 42.5878 17.1184 42.5878 14.6365C42.5878 12.0911 44.4534 10.3729 46.6407 10.3729C48.828 10.3729 50.6936 12.0911 50.6936 14.6365C50.6936 17.1184 48.828 18.9002 46.6407 18.9002Z" fill="#FBBC05"/>
<path id="Vector_5" d="M71.2793 0.318359H74.3672V21.7002H71.2793V0.318359Z" fill="#34A853"/>
<path id="Vector_6" d="M83.889 18.9002C82.2807 18.9002 81.1871 18.2002 80.4151 16.7365L90.0005 12.8547L89.6788 12.0275C89.0998 10.4365 87.2342 7.50928 83.5673 7.50928C79.9004 7.50928 76.8125 10.3729 76.8125 14.5729C76.8125 18.5184 79.8361 21.6365 83.889 21.6365C87.1699 21.6365 89.0355 19.6638 89.8718 18.5184L87.4272 16.9275C86.5909 18.1365 85.4973 18.9002 83.889 18.9002ZM83.696 10.182C84.9826 10.182 86.0763 10.8184 86.3979 11.7093L79.9648 14.382C79.9004 11.4547 82.0877 10.182 83.696 10.182Z" fill="#EA4335"/>
</g>
</g>
<defs>
<clipPath id="clip0_5199_137">
<rect width="90" height="28" fill="white"/>
</clipPath>
</defs>
</svg>
