<svg width="111" height="29" viewBox="0 0 111 29" fill="none" xmlns="http://www.w3.org/2000/svg">
<g id="Group">
<g id="Group_2">
<path id="Vector" d="M35.7637 22.5502L37.1286 19.3804C38.6036 20.4811 40.563 21.0534 42.5003 21.0534C43.9313 21.0534 44.8339 20.5031 44.8339 19.6666C44.8119 17.3333 36.27 19.1603 36.204 13.305C36.182 10.3333 38.8238 8.04395 42.5663 8.04395C44.7899 8.04395 47.0134 8.59426 48.5985 9.84898L47.3216 13.0848C45.8686 12.1603 44.0634 11.4999 42.3462 11.4999C41.1794 11.4999 40.4089 12.0502 40.4089 12.7546C40.4309 15.0439 49.0388 13.7892 49.1268 19.3804C49.1268 22.4182 46.5511 24.5534 42.8525 24.5534C40.1447 24.5534 37.657 23.915 35.7637 22.5502Z" fill="black"/>
<path id="Vector_2" d="M88.1373 18.2358C87.4548 19.4244 86.1779 20.2389 84.7029 20.2389C82.5234 20.2389 80.7622 18.4779 80.7622 16.2987C80.7622 14.1194 82.5234 12.3584 84.7029 12.3584C86.1779 12.3584 87.4548 13.1729 88.1373 14.3616L91.9019 12.2704C90.4929 9.76093 87.785 8.04395 84.7029 8.04395C80.1458 8.04395 76.4473 11.7421 76.4473 16.2987C76.4473 20.8553 80.1458 24.5534 84.7029 24.5534C87.8071 24.5534 90.4929 22.8584 91.9019 20.327L88.1373 18.2358Z" fill="black"/>
<path id="Vector_3" d="M55.7317 1.19824H51.0205V24.2454H55.7317V1.19824Z" fill="black"/>
<path id="Vector_4" d="M93.751 1.19824V24.2454H98.4622V17.3335L104.054 24.2454H110.086L102.975 16.0347L109.558 8.37434H103.79L98.4622 14.736V1.19824H93.751Z" fill="black"/>
<path id="Vector_5" d="M69.7328 18.2798C69.0503 19.4024 67.6413 20.2389 66.0563 20.2389C63.8768 20.2389 62.1156 18.4779 62.1156 16.2987C62.1156 14.1194 63.8768 12.3584 66.0563 12.3584C67.6413 12.3584 69.0503 13.2389 69.7328 14.3836V18.2798ZM69.7328 8.37413V10.2452C68.9622 8.94646 67.0469 8.04395 65.0436 8.04395C60.9047 8.04395 57.6465 11.698 57.6465 16.2767C57.6465 20.8553 60.9047 24.5534 65.0436 24.5534C67.0469 24.5534 68.9622 23.6509 69.7328 22.3521V24.2232H74.444V8.37413H69.7328Z" fill="black"/>
</g>
<g id="Group_3">
<g id="Group_4">
<path id="Vector_6" d="M6.63816 18.2577C6.63816 19.8646 5.33927 21.1634 3.73217 21.1634C2.12506 21.1634 0.826172 19.8646 0.826172 18.2577C0.826172 16.6508 2.12506 15.3521 3.73217 15.3521H6.63816V18.2577Z" fill="#E01E5A"/>
<path id="Vector_7" d="M8.09082 18.2577C8.09082 16.6508 9.38971 15.3521 10.9968 15.3521C12.6039 15.3521 13.9028 16.6508 13.9028 18.2577V25.5219C13.9028 27.1288 12.6039 28.4275 10.9968 28.4275C9.38971 28.4275 8.09082 27.1288 8.09082 25.5219V18.2577Z" fill="#E01E5A"/>
</g>
<g id="Group_5">
<path id="Vector_8" d="M10.9968 6.59111C9.38971 6.59111 8.09082 5.29237 8.09082 3.68545C8.09082 2.07853 9.38971 0.779785 10.9968 0.779785C12.6039 0.779785 13.9028 2.07853 13.9028 3.68545V6.59111H10.9968Z" fill="#36C5F0"/>
<path id="Vector_9" d="M10.9967 8.06592C12.6038 8.06592 13.9027 9.36466 13.9027 10.9716C13.9027 12.5785 12.6038 13.8772 10.9967 13.8772H3.70971C2.1026 13.8772 0.803711 12.5785 0.803711 10.9716C0.803711 9.36466 2.1026 8.06592 3.70971 8.06592H10.9967Z" fill="#36C5F0"/>
</g>
<g id="Group_6">
<path id="Vector_10" d="M22.6426 10.9716C22.6426 9.36466 23.9415 8.06592 25.5486 8.06592C27.1557 8.06592 28.4546 9.36466 28.4546 10.9716C28.4546 12.5785 27.1557 13.8772 25.5486 13.8772H22.6426V10.9716Z" fill="#2EB67D"/>
<path id="Vector_11" d="M21.1899 10.9716C21.1899 12.5785 19.891 13.8773 18.2839 13.8773C16.6768 13.8773 15.3779 12.5785 15.3779 10.9716V3.68545C15.3779 2.07853 16.6768 0.779785 18.2839 0.779785C19.891 0.779785 21.1899 2.07853 21.1899 3.68545V10.9716Z" fill="#2EB67D"/>
</g>
<g id="Group_7">
<path id="Vector_12" d="M18.2839 22.6162C19.891 22.6162 21.1899 23.915 21.1899 25.5219C21.1899 27.1288 19.891 28.4275 18.2839 28.4275C16.6768 28.4275 15.3779 27.1288 15.3779 25.5219V22.6162H18.2839Z" fill="#ECB22E"/>
<path id="Vector_13" d="M18.2839 21.1634C16.6768 21.1634 15.3779 19.8646 15.3779 18.2577C15.3779 16.6508 16.6768 15.3521 18.2839 15.3521H25.5709C27.178 15.3521 28.4769 16.6508 28.4769 18.2577C28.4769 19.8646 27.178 21.1634 25.5709 21.1634H18.2839Z" fill="#ECB22E"/>
</g>
</g>
</g>
</svg>
