<svg
viewBox="0 0 20 20"
x="0"
y="0"
fill="none"
xmlns="http://www.w3.org/2000/svg"
>
<g
  id="Icon / Instagram_3"
  data-node-id="I5304:3748;5304:3678"
  xmlns="http://www.w3.org/2000/svg"
>
  <path
    id="Vector_18"
    data-node-id="I5304:3748;5304:3678;4179:9450"
    fill-rule="evenodd"
    clip-rule="evenodd"
    d="M13.334,2.7h-6.67c-2.3,0 -4.16,1.87 -4.16,4.17v6.67c0,2.3 1.86,4.16 4.16,4.16h6.67c2.3,0 4.17,-1.86 4.17,-4.16v-6.67c0,-2.3 -1.87,-4.17 -4.17,-4.17zM16.044,13.54c-0.01,1.49 -1.22,2.7 -2.71,2.7h-6.67c-1.49,0 -2.7,-1.21 -2.71,-2.7v-6.67c0.01,-1.5 1.22,-2.7 2.71,-2.71h6.67c1.49,0.01 2.7,1.21 2.71,2.71zM13.954,7.08c0.46,0 0.84,-0.38 0.84,-0.84c0,-0.46 -0.38,-0.83 -0.84,-0.83c-0.46,0 -0.83,0.37 -0.83,0.83c0,0.46 0.37,0.84 0.83,0.84zM10.004,6.45c-2.08,0 -3.75,1.68 -3.75,3.75c0,2.07 1.67,3.75 3.75,3.75c2.07,0 3.75,-1.68 3.75,-3.75c0,-0.99 -0.4,-1.95 -1.1,-2.65c-0.7,-0.71 -1.66,-1.1 -2.65,-1.1zM7.704,10.2c0,1.27 1.03,2.29 2.3,2.29c1.26,0 2.29,-1.02 2.29,-2.29c0,-1.26 -1.03,-2.29 -2.29,-2.29c-1.27,0 -2.3,1.03 -2.3,2.29z"
    fill="currentColor"
  />
</g>
</svg>