<svg
viewBox="0 0 20 20"
x="0"
y="0"
fill="none"
xmlns="http://www.w3.org/2000/svg"
>
<g
  id="Icon / LinkedIn_3"
  data-node-id="I5304:3748;5304:3675"
  xmlns="http://www.w3.org/2000/svg"
>
  <path
    id="Vector_17"
    data-node-id="I5304:3748;5304:3675;4179:9452"
    fill-rule="evenodd"
    clip-rule="evenodd"
    d="M3.754,2.7c-0.69,0 -1.25,0.56 -1.25,1.25v12.5c0,0.69 0.56,1.25 1.25,1.25h12.5c0.69,0 1.25,-0.56 1.25,-1.25v-12.5c0,-0.69 -0.56,-1.25 -1.25,-1.25zM7.104,6.04c0,0.79 -0.6,1.29 -1.3,1.28c-0.67,0 -1.25,-0.53 -1.25,-1.28c0.01,-0.71 0.56,-1.27 1.29,-1.25c0.73,0.01 1.26,0.55 1.26,1.25zM10.234,8.34h-2.1v0v7.13h2.22v-0.17c0,-0.31 0,-0.63 0,-0.95c0,-0.84 0,-1.69 0,-2.53c0,-0.21 0.01,-0.42 0.06,-0.62c0.2,-0.73 0.86,-1.2 1.59,-1.08c0.47,0.07 0.78,0.34 0.92,0.79c0.08,0.28 0.11,0.57 0.12,0.86c0.01,0.88 0.01,1.75 0,2.62c0,0.31 0,0.62 0,0.93v0.15h2.23v-0.17c0,-0.38 0,-0.76 0,-1.13c0,-0.94 0,-1.88 0,-2.83c0,-0.42 -0.04,-0.84 -0.15,-1.25c-0.15,-0.61 -0.48,-1.12 -1,-1.49c-0.37,-0.26 -0.78,-0.42 -1.24,-0.44c-0.05,0 -0.1,-0.01 -0.15,-0.01c-0.24,-0.01 -0.47,-0.03 -0.7,0.02c-0.63,0.13 -1.19,0.42 -1.62,0.93c-0.04,0.06 -0.09,0.12 -0.16,0.21l-0.02,0.02zM4.734,15.47h2.21v-7.13h-2.21z"
    fill="currentColor"
  />
</g>
</svg>