<svg
viewBox="0 0 24 24"
x="0"
y="0"
fill="none"
xmlns="http://www.w3.org/2000/svg"
>
<g
  id="Icon / &lt;LocationIcon>"
  data-node-id="5325:4667"
  xmlns="http://www.w3.org/2000/svg"
>
  <path
    id="Vector_2"
    data-node-id="I5325:4667;158:792"
    fill-rule="evenodd"
    clip-rule="evenodd"
    d="M12,21c-2.28,0 -6,-8.686 -6,-12c0,-1.591 0.632,-3.117 1.757,-4.243c1.126,-1.125 2.652,-1.757 4.243,-1.757c1.591,0 3.117,0.632 4.243,1.757c1.125,1.126 1.757,2.652 1.757,4.243c0,3.314 -3.72,12 -6,12zM12,12c0.382,0 0.761,-0.075 1.114,-0.222c0.354,-0.146 0.675,-0.361 0.945,-0.631c0.27,-0.27 0.485,-0.591 0.631,-0.945c0.147,-0.353 0.222,-0.732 0.222,-1.114c0,-0.382 -0.075,-0.761 -0.222,-1.114c-0.146,-0.354 -0.361,-0.675 -0.631,-0.945c-0.27,-0.27 -0.591,-0.485 -0.945,-0.631c-0.353,-0.147 -0.732,-0.222 -1.114,-0.222c-0.772,0 -1.513,0.307 -2.059,0.853c-0.546,0.546 -0.853,1.287 -0.853,2.059c0,0.772 0.307,1.513 0.853,2.059c0.546,0.546 1.287,0.853 2.059,0.853z"
    fill="currentColor"
  />
</g>
</svg>