<svg viewBox="0 0 32 32" x="0" y="0" fill="none" xmlns="http://www.w3.org/2000/svg">
    <g id="Icon / &lt;AddIcon>" data-node-id="I5321:3551;2193:3720" xmlns="http://www.w3.org/2000/svg">
      <path id="Vector_2" data-node-id="I5321:3551;2193:3720;158:543" fill-rule="evenodd" clip-rule="evenodd" d="M17.33,14.667v-9.343c0,-0.352 -0.14,-0.69 -0.39,-0.938c-0.25,-0.248 -0.59,-0.387 -0.94,-0.386c-0.74,0 -1.33,0.593 -1.33,1.324v9.343h-9.35c-0.35,0.001 -0.69,0.142 -0.93,0.392c-0.25,0.25 -0.39,0.589 -0.39,0.941c0,0.743 0.59,1.333 1.32,1.333h9.35v9.343c0,0.731 0.59,1.324 1.33,1.324c0.74,0 1.33,-0.593 1.33,-1.324v-9.343h9.35c0.35,-0.001 0.69,-0.142 0.93,-0.392c0.25,-0.25 0.39,-0.589 0.39,-0.941c0,-0.741 -0.59,-1.333 -1.32,-1.333z" fill="currentColor" />
    </g>
  </svg>