<svg
viewBox="0 0 24 24"
x="0"
y="0"
fill="none"
xmlns="http://www.w3.org/2000/svg"
>
<g
  id="Dollar Square"
  data-node-id="5325:4679"
  xmlns="http://www.w3.org/2000/svg"
>
  <path
    id="icon"
    data-node-id="I5325:4679;3215:3225"
    d="M8.672,14.33c0,1.29 0.99,2.33 2.22,2.33h2.51c1.07,0 1.94,-0.91 1.94,-2.03c0,-1.22 -0.53,-1.65 -1.32,-1.93l-4.03,-1.4c-0.79,-0.28 -1.32,-0.71 -1.32,-1.93c0,-1.12 0.87,-2.03 1.94,-2.03h2.51c1.23,0 2.22,1.04 2.22,2.33M12,6v12M15,22h-6c-5,0 -7,-2 -7,-7v-6c0,-5 2,-7 7,-7h6c5,0 7,2 7,7v6c0,5 -2,7 -7,7z"
    stroke="#333333"
    stroke-width="2"
    stroke-linecap="round"
    stroke-linejoin="round"
  />
</g>
</svg>