<svg
viewBox="0 0 24 24"
x="0"
y="0"
fill="none"
xmlns="http://www.w3.org/2000/svg"
>
<g
  id="Icon / &lt;SearchIcon>"
  data-node-id="I5245:2350;2179:5994"
  xmlns="http://www.w3.org/2000/svg"
>
  <path
    id="Vector_2"
    data-node-id="I5245:2350;2179:5994;158:881"
    fill-rule="evenodd"
    clip-rule="evenodd"
    d="M16.44,15.085l3.94,4.01c0.17,0.191 0.27,0.443 0.26,0.703c0,0.259 -0.11,0.507 -0.3,0.689c-0.18,0.182 -0.43,0.285 -0.69,0.287c-0.26,0.002 -0.51,-0.097 -0.7,-0.277l-3.94,-4.006c-1.52,1.145 -3.41,1.669 -5.31,1.467c-1.89,-0.202 -3.63,-1.115 -4.88,-2.554c-1.24,-1.44 -1.89,-3.298 -1.81,-5.199c0.07,-1.901 0.87,-3.702 2.22,-5.039c1.35,-1.338 3.16,-2.11 5.06,-2.163c1.91,-0.052 3.76,0.621 5.18,1.882c1.43,1.26 2.32,3.015 2.5,4.909c0.18,1.894 -0.37,3.785 -1.53,5.291zM10.5,16c1.46,0 2.86,-0.579 3.89,-1.611c1.03,-1.031 1.61,-2.43 1.61,-3.889c0,-1.459 -0.58,-2.858 -1.61,-3.889c-1.03,-1.032 -2.43,-1.611 -3.89,-1.611c-1.46,0 -2.86,0.579 -3.89,1.611c-1.03,1.031 -1.61,2.43 -1.61,3.889c0,1.459 0.58,2.858 1.61,3.889c1.03,1.032 2.43,1.611 3.89,1.611z"
    fill="currentColor"
  />
</g>
</svg>